<svg width="24" height="24" viewBox="0 0 24 24" fill="none" xmlns="http://www.w3.org/2000/svg">
<g clip-path="url(#clip0_10_218)">
<path d="M20 3.5C18.89 3.15 17.67 3 16.5 3C14.55 3 12.45 3.4 11 4.5C9.55 3.4 7.45 3 5.5 3C3.55 3 1.45 3.4 0 4.5V19.15C0 19.4 0.25 19.65 0.5 19.65C0.6 19.65 0.65 19.6 0.75 19.6C2.1 18.95 4.05 18.5 5.5 18.5C7.45 18.5 9.55 18.9 11 20C12.35 19.15 14.8 18.5 16.5 18.5C18.15 18.5 19.85 18.8 21.25 19.55C21.35 19.6 21.4 19.6 21.5 19.6C21.75 19.6 22 19.35 22 19.1V4.5C21.4 4.05 20.75 3.75 20 3.5ZM20 17C18.9 16.65 17.7 16.5 16.5 16.5C14.8 16.5 12.35 17.15 11 18V6.5C12.35 5.65 14.8 5 16.5 5C17.7 5 18.9 5.15 20 5.5V17Z" fill="url(#paint0_linear_10_218)"/>
<path d="M16.5 9C17.38 9 18.23 9.09 19 9.26V7.74C18.21 7.59 17.36 7.5 16.5 7.5C14.8 7.5 13.26 7.79 12 8.33V9.99C13.13 9.35 14.7 9 16.5 9Z" fill="url(#paint1_linear_10_218)"/>
<path d="M12 10.99V12.65C13.13 12.01 14.7 11.66 16.5 11.66C17.38 11.66 18.23 11.75 19 11.92V10.4C18.21 10.25 17.36 10.16 16.5 10.16C14.8 10.16 13.26 10.46 12 10.99Z" fill="url(#paint2_linear_10_218)"/>
<path d="M16.5 12.83C14.8 12.83 13.26 13.12 12 13.66V15.32C13.13 14.68 14.7 14.33 16.5 14.33C17.38 14.33 18.23 14.42 19 14.59V13.07C18.21 12.91 17.36 12.83 16.5 12.83Z" fill="url(#paint3_linear_10_218)"/>
</g>
<defs>
<linearGradient id="paint0_linear_10_218" x1="11" y1="3" x2="11" y2="20" gradientUnits="userSpaceOnUse">
<stop stop-color="#85CCF3"/>
<stop offset="1" stop-color="#3A71C0"/>
</linearGradient>
<linearGradient id="paint1_linear_10_218" x1="15.5" y1="7.5" x2="15.5" y2="9.99" gradientUnits="userSpaceOnUse">
<stop stop-color="#85CCF3"/>
<stop offset="1" stop-color="#3A71C0"/>
</linearGradient>
<linearGradient id="paint2_linear_10_218" x1="15.5" y1="10.16" x2="15.5" y2="12.65" gradientUnits="userSpaceOnUse">
<stop stop-color="#85CCF3"/>
<stop offset="1" stop-color="#3A71C0"/>
</linearGradient>
<linearGradient id="paint3_linear_10_218" x1="15.5" y1="12.83" x2="15.5" y2="15.32" gradientUnits="userSpaceOnUse">
<stop stop-color="#85CCF3"/>
<stop offset="1" stop-color="#3A71C0"/>
</linearGradient>
<clipPath id="clip0_10_218">
<rect width="24" height="24" fill="white"/>
</clipPath>
</defs>
</svg>
